<svg width="424" height="49" viewBox="0 0 424 49" fill="none" xmlns="http://www.w3.org/2000/svg">
<path d="M30.64 36.992H32.432V48H0.752V46.208L4.272 45.76C4.95467 45.6747 5.36 45.504 5.488 45.248C5.616 44.9493 5.68 44.0747 5.68 42.624V9.856C5.68 8.40533 5.616 7.552 5.488 7.296C5.36 6.99733 4.95467 6.80533 4.272 6.72L0.752 6.272V4.48H31.792V15.488H30L27.952 8.384C27.824 7.872 27.6747 7.50933 27.504 7.296C27.376 7.04 27.0987 6.89067 26.672 6.848C26.2453 6.76266 25.52 6.72 24.496 6.72H13.36V24.896H20.656C21.68 24.896 22.4053 24.8747 22.832 24.832C23.2587 24.7467 23.536 24.5973 23.664 24.384C23.8347 24.128 23.984 23.744 24.112 23.232L25.52 18.048H27.312V33.984H25.52L24.112 28.8C23.984 28.288 23.8347 27.9253 23.664 27.712C23.536 27.456 23.2587 27.3067 22.832 27.264C22.4053 27.1787 21.68 27.136 20.656 27.136H13.36V45.76H25.136C26.16 45.76 26.8853 45.7387 27.312 45.696C27.7387 45.6107 28.016 45.4613 28.144 45.248C28.3147 44.992 28.464 44.608 28.592 44.096L30.64 36.992ZM52.6265 35.904L48.2105 34.88C45.3518 34.1973 43.2185 32.9813 41.8105 31.232C40.4452 29.44 39.7625 27.328 39.7625 24.896C39.7625 23.104 40.1465 21.4613 40.9145 19.968C41.7252 18.432 42.9838 17.216 44.6905 16.32C46.3972 15.3813 48.6158 14.912 51.3465 14.912C54.2905 14.912 56.6798 15.3813 58.5145 16.32C60.3492 17.2587 61.6505 18.496 62.4185 20.032C63.1865 21.568 63.4212 23.2107 63.1225 24.96L56.0825 26.24C56.6798 23.3387 56.5092 21.0987 55.5705 19.52C54.6745 17.9413 53.1598 17.152 51.0265 17.152C49.5332 17.152 48.2958 17.6 47.3145 18.496C46.3332 19.3493 45.8425 20.5867 45.8425 22.208C45.8425 23.7013 46.2692 25.024 47.1225 26.176C47.9758 27.2853 49.2345 28.032 50.8985 28.416L55.3145 29.44C58.4718 30.1653 60.7545 31.3173 62.1625 32.896C63.5705 34.432 64.2745 36.352 64.2745 38.656C64.2745 41.5147 63.2078 43.904 61.0745 45.824C58.9838 47.7013 55.8478 48.64 51.6665 48.64C50.2158 48.64 48.6158 48.4267 46.8665 48C45.1598 47.5307 43.5812 46.6987 42.1305 45.504C40.7225 44.3093 39.6985 42.6027 39.0585 40.384L43.2185 38.72C43.5172 41.536 44.4772 43.52 46.0985 44.672C47.7625 45.824 49.6185 46.4 51.6665 46.4C53.5865 46.4 55.1438 45.9733 56.3385 45.12C57.5758 44.224 58.1945 42.944 58.1945 41.28C58.1945 40.128 57.7892 39.0827 56.9785 38.144C56.2105 37.1627 54.7598 36.416 52.6265 35.904ZM84.6565 17.152C82.6085 17.152 81.0725 18.1333 80.0485 20.096C79.0672 22.016 78.5765 25.2587 78.5765 29.824V33.664C78.5765 38.1867 79.1525 41.4507 80.3045 43.456C81.4565 45.4187 83.3338 46.4 85.9365 46.4C87.8565 46.4 89.4138 45.8667 90.6085 44.8C91.8458 43.6907 92.5498 41.8347 92.7205 39.232L96.8165 40.384C96.0485 43.3707 94.6405 45.504 92.5925 46.784C90.5872 48.0213 88.2192 48.64 85.4885 48.64C80.5818 48.64 76.8912 47.168 74.4165 44.224C71.9418 41.2373 70.7045 37.2907 70.7045 32.384V31.104C70.7045 26.1973 71.8992 22.272 74.2885 19.328C76.6778 16.384 80.1338 14.912 84.6565 14.912C87.6432 14.912 90.0752 15.5093 91.9525 16.704C93.8725 17.856 95.2165 19.392 95.9845 21.312C96.7952 23.1893 97.0085 25.216 96.6245 27.392L89.5845 28.416C90.0538 24.832 89.8618 22.0587 89.0085 20.096C88.1552 18.1333 86.7045 17.152 84.6565 17.152ZM133.612 46.4C132.929 47.04 132.097 47.5733 131.116 48C130.177 48.4267 129.025 48.64 127.66 48.64C125.911 48.64 124.439 48.256 123.244 47.488C122.092 46.72 121.324 45.632 120.94 44.224C119.532 45.76 117.975 46.8907 116.268 47.616C114.604 48.2987 112.897 48.64 111.148 48.64C108.204 48.64 106.007 47.8293 104.556 46.208C103.105 44.544 102.38 42.4747 102.38 40C102.38 37.4827 103.297 35.456 105.132 33.92C106.967 32.3413 110.209 31.552 114.86 31.552H120.684V26.368C120.684 22.8267 120.215 20.416 119.276 19.136C118.38 17.8133 117.121 17.152 115.5 17.152C114.433 17.152 113.452 17.4293 112.556 17.984C111.66 18.496 111.02 19.4773 110.636 20.928C110.295 22.336 110.359 24.384 110.828 27.072L103.788 26.048C103.447 24.0853 103.66 22.272 104.428 20.608C105.239 18.9013 106.583 17.536 108.46 16.512C110.337 15.4453 112.727 14.912 115.628 14.912C118.913 14.912 121.452 15.4453 123.244 16.512C125.036 17.5787 126.273 18.9867 126.956 20.736C127.681 22.4853 128.044 24.3627 128.044 26.368V41.152C128.044 43.328 128.236 44.6933 128.62 45.248C129.004 45.8027 129.431 46.08 129.9 46.08C130.668 46.08 131.521 45.632 132.46 44.736L133.612 46.4ZM113.964 45.248C115.073 45.248 116.161 44.9707 117.228 44.416C118.337 43.8187 119.489 42.7307 120.684 41.152V33.792H115.884C113.793 33.792 112.279 34.2827 111.34 35.264C110.401 36.2453 109.932 37.7813 109.932 39.872C109.932 41.5787 110.273 42.9013 110.956 43.84C111.639 44.7787 112.641 45.248 113.964 45.248ZM134.962 2.432V0.639999H147.25V42.624C147.25 44.0747 147.314 44.9493 147.442 45.248C147.57 45.504 147.975 45.6747 148.658 45.76L152.178 46.208V48H134.962V46.208L138.482 45.76C139.164 45.6747 139.57 45.504 139.698 45.248C139.826 44.9493 139.89 44.0747 139.89 42.624V6.016C139.89 4.56533 139.826 3.712 139.698 3.456C139.57 3.15733 139.164 2.96533 138.482 2.88L134.962 2.432ZM187.3 46.4C186.617 47.04 185.785 47.5733 184.804 48C183.865 48.4267 182.713 48.64 181.348 48.64C179.598 48.64 178.126 48.256 176.932 47.488C175.78 46.72 175.012 45.632 174.628 44.224C173.22 45.76 171.662 46.8907 169.956 47.616C168.292 48.2987 166.585 48.64 164.836 48.64C161.892 48.64 159.694 47.8293 158.244 46.208C156.793 44.544 156.068 42.4747 156.068 40C156.068 37.4827 156.985 35.456 158.82 33.92C160.654 32.3413 163.897 31.552 168.548 31.552H174.372V26.368C174.372 22.8267 173.902 20.416 172.964 19.136C172.068 17.8133 170.809 17.152 169.188 17.152C168.121 17.152 167.14 17.4293 166.244 17.984C165.348 18.496 164.708 19.4773 164.324 20.928C163.982 22.336 164.046 24.384 164.516 27.072L157.476 26.048C157.134 24.0853 157.348 22.272 158.116 20.608C158.926 18.9013 160.27 17.536 162.148 16.512C164.025 15.4453 166.414 14.912 169.316 14.912C172.601 14.912 175.14 15.4453 176.932 16.512C178.724 17.5787 179.961 18.9867 180.644 20.736C181.369 22.4853 181.732 24.3627 181.732 26.368V41.152C181.732 43.328 181.924 44.6933 182.308 45.248C182.692 45.8027 183.118 46.08 183.588 46.08C184.356 46.08 185.209 45.632 186.148 44.736L187.3 46.4ZM167.652 45.248C168.761 45.248 169.849 44.9707 170.916 44.416C172.025 43.8187 173.177 42.7307 174.372 41.152V33.792H169.572C167.481 33.792 165.966 34.2827 165.028 35.264C164.089 36.2453 163.62 37.7813 163.62 39.872C163.62 41.5787 163.961 42.9013 164.644 43.84C165.326 44.7787 166.329 45.248 167.652 45.248ZM188.137 2.432V0.639999H200.425V20.288C201.577 18.496 202.857 17.152 204.265 16.256C205.716 15.36 207.38 14.912 209.257 14.912C212.841 14.912 215.678 16.3413 217.769 19.2C219.902 22.016 220.969 25.984 220.969 31.104V32.384C220.969 37.3333 219.753 41.28 217.321 44.224C214.889 47.168 211.518 48.64 207.209 48.64C203.924 48.64 201.236 47.6587 199.145 45.696C198.377 45.9947 197.63 46.3787 196.905 46.848C196.222 47.2747 195.518 47.7653 194.793 48.32H193.065V6.016C193.065 4.56533 193.001 3.712 192.873 3.456C192.745 3.15733 192.34 2.96533 191.657 2.88L188.137 2.432ZM207.593 17.728C206.526 17.728 205.396 18.176 204.201 19.072C203.049 19.9253 201.79 21.696 200.425 24.384V43.712C202.046 45.3333 204.03 46.144 206.377 46.144C208.766 46.144 210.473 45.0987 211.497 43.008C212.564 40.8747 213.097 37.9733 213.097 34.304V29.184C213.097 25.216 212.606 22.3147 211.625 20.48C210.644 18.6453 209.3 17.728 207.593 17.728ZM234.611 10.048C233.288 10.048 232.221 9.64266 231.411 8.832C230.6 7.97866 230.195 6.89066 230.195 5.568C230.195 4.24533 230.6 3.17867 231.411 2.368C232.221 1.55733 233.288 1.152 234.611 1.152C235.891 1.152 236.957 1.55733 237.811 2.368C238.664 3.17867 239.091 4.24533 239.091 5.568C239.091 6.89066 238.664 7.97866 237.811 8.832C236.957 9.64266 235.891 10.048 234.611 10.048ZM226.035 17.344V15.552H238.323V42.624C238.323 44.0747 238.387 44.9493 238.515 45.248C238.643 45.504 239.048 45.6747 239.731 45.76L243.251 46.208V48H226.035V46.208L229.555 45.76C230.237 45.6747 230.643 45.504 230.771 45.248C230.899 44.9493 230.963 44.0747 230.963 42.624V20.928C230.963 19.4773 230.899 18.624 230.771 18.368C230.643 18.0693 230.237 17.8773 229.555 17.792L226.035 17.344ZM245.274 2.432V0.639999H257.562V42.624C257.562 44.0747 257.626 44.9493 257.754 45.248C257.882 45.504 258.287 45.6747 258.97 45.76L262.49 46.208V48H245.274V46.208L248.794 45.76C249.477 45.6747 249.882 45.504 250.01 45.248C250.138 44.9493 250.202 44.0747 250.202 42.624V6.016C250.202 4.56533 250.138 3.712 250.01 3.456C249.882 3.15733 249.477 2.96533 248.794 2.88L245.274 2.432ZM273.548 10.048C272.225 10.048 271.159 9.64266 270.348 8.832C269.537 7.97866 269.132 6.89066 269.132 5.568C269.132 4.24533 269.537 3.17867 270.348 2.368C271.159 1.55733 272.225 1.152 273.548 1.152C274.828 1.152 275.895 1.55733 276.748 2.368C277.601 3.17867 278.028 4.24533 278.028 5.568C278.028 6.89066 277.601 7.97866 276.748 8.832C275.895 9.64266 274.828 10.048 273.548 10.048ZM264.972 17.344V15.552H277.26V42.624C277.26 44.0747 277.324 44.9493 277.452 45.248C277.58 45.504 277.985 45.6747 278.668 45.76L282.188 46.208V48H264.972V46.208L268.492 45.76C269.175 45.6747 269.58 45.504 269.708 45.248C269.836 44.9493 269.9 44.0747 269.9 42.624V20.928C269.9 19.4773 269.836 18.624 269.708 18.368C269.58 18.0693 269.175 17.8773 268.492 17.792L264.972 17.344ZM319.604 46.208V48H307.7V42.688C306.505 44.6507 305.161 46.144 303.668 47.168C302.217 48.1493 300.489 48.64 298.484 48.64C294.9 48.64 292.041 47.232 289.908 44.416C287.817 41.5573 286.772 37.568 286.772 32.448V31.168C286.772 26.2187 287.988 22.272 290.42 19.328C292.894 16.384 296.265 14.912 300.532 14.912C303.092 14.912 305.353 15.552 307.316 16.832V6.016C307.316 4.56533 307.252 3.712 307.124 3.456C306.996 3.15733 306.59 2.96533 305.908 2.88L302.388 2.432V0.639999H314.676V42.624C314.676 44.0747 314.74 44.9493 314.868 45.248C314.996 45.504 315.401 45.6747 316.083 45.76L319.604 46.208ZM294.644 34.368C294.644 38.336 295.134 41.2373 296.116 43.072C297.097 44.9067 298.441 45.824 300.148 45.824C301.214 45.824 302.324 45.3973 303.476 44.544C304.67 43.648 305.95 41.856 307.316 39.168V19.84C305.694 18.2187 303.71 17.408 301.364 17.408C299.017 17.408 297.31 18.4747 296.244 20.608C295.177 22.6987 294.644 25.5787 294.644 29.248V34.368ZM354.737 46.4C354.054 47.04 353.222 47.5733 352.241 48C351.302 48.4267 350.15 48.64 348.785 48.64C347.036 48.64 345.564 48.256 344.369 47.488C343.217 46.72 342.449 45.632 342.065 44.224C340.657 45.76 339.1 46.8907 337.393 47.616C335.729 48.2987 334.022 48.64 332.273 48.64C329.329 48.64 327.132 47.8293 325.681 46.208C324.23 44.544 323.505 42.4747 323.505 40C323.505 37.4827 324.422 35.456 326.257 33.92C328.092 32.3413 331.334 31.552 335.985 31.552H341.809V26.368C341.809 22.8267 341.34 20.416 340.401 19.136C339.505 17.8133 338.246 17.152 336.625 17.152C335.558 17.152 334.577 17.4293 333.681 17.984C332.785 18.496 332.145 19.4773 331.761 20.928C331.42 22.336 331.484 24.384 331.953 27.072L324.913 26.048C324.572 24.0853 324.785 22.272 325.553 20.608C326.364 18.9013 327.708 17.536 329.585 16.512C331.462 15.4453 333.852 14.912 336.753 14.912C340.038 14.912 342.577 15.4453 344.369 16.512C346.161 17.5787 347.398 18.9867 348.081 20.736C348.806 22.4853 349.169 24.3627 349.169 26.368V41.152C349.169 43.328 349.361 44.6933 349.745 45.248C350.129 45.8027 350.556 46.08 351.025 46.08C351.793 46.08 352.646 45.632 353.585 44.736L354.737 46.4ZM335.089 45.248C336.198 45.248 337.286 44.9707 338.353 44.416C339.462 43.8187 340.614 42.7307 341.809 41.152V33.792H337.009C334.918 33.792 333.404 34.2827 332.465 35.264C331.526 36.2453 331.057 37.7813 331.057 39.872C331.057 41.5787 331.398 42.9013 332.081 43.84C332.764 44.7787 333.766 45.248 335.089 45.248ZM391.479 46.208V48H379.575V42.688C378.38 44.6507 377.036 46.144 375.543 47.168C374.092 48.1493 372.364 48.64 370.359 48.64C366.775 48.64 363.916 47.232 361.783 44.416C359.692 41.5573 358.647 37.568 358.647 32.448V31.168C358.647 26.2187 359.863 22.272 362.295 19.328C364.769 16.384 368.14 14.912 372.407 14.912C374.967 14.912 377.228 15.552 379.191 16.832V6.016C379.191 4.56533 379.127 3.712 378.999 3.456C378.871 3.15733 378.465 2.96533 377.783 2.88L374.263 2.432V0.639999H386.551V42.624C386.551 44.0747 386.615 44.9493 386.743 45.248C386.871 45.504 387.276 45.6747 387.958 45.76L391.479 46.208ZM366.519 34.368C366.519 38.336 367.009 41.2373 367.991 43.072C368.972 44.9067 370.316 45.824 372.023 45.824C373.089 45.824 374.199 45.3973 375.351 44.544C376.545 43.648 377.825 41.856 379.191 39.168V19.84C377.569 18.2187 375.585 17.408 373.239 17.408C370.892 17.408 369.185 18.4747 368.119 20.608C367.052 22.6987 366.519 25.5787 366.519 29.248V34.368ZM422.836 40.384C422.068 43.3707 420.639 45.504 418.548 46.784C416.457 48.0213 414.025 48.64 411.252 48.64C406.132 48.64 402.292 47.168 399.732 44.224C397.172 41.2373 395.892 37.2907 395.892 32.384V31.104C395.892 26.1973 397.087 22.272 399.476 19.328C401.908 16.384 405.407 14.912 409.972 14.912C412.532 14.912 414.793 15.424 416.756 16.448C418.761 17.4293 420.319 18.8587 421.428 20.736C422.58 22.6133 423.156 24.896 423.156 27.584C423.156 28.224 423.113 28.9067 423.028 29.632C422.985 30.3573 422.879 31.0827 422.708 31.808H403.764V33.664C403.764 38.1867 404.404 41.4507 405.684 43.456C406.964 45.4187 409.033 46.4 411.892 46.4C413.727 46.4 415.284 45.8667 416.564 44.8C417.844 43.6907 418.569 41.8347 418.74 39.232L422.836 40.384ZM409.972 17.152C407.881 17.152 406.324 18.112 405.3 20.032C404.276 21.952 403.764 25.1307 403.764 29.568H415.348C415.519 28.7147 415.625 27.9253 415.668 27.2C415.753 26.432 415.796 25.728 415.796 25.088C415.796 22.3573 415.263 20.352 414.196 19.072C413.129 17.792 411.721 17.152 409.972 17.152Z" fill="white"/>
</svg>
