<svg width="287" height="49" viewBox="0 0 287 49" fill="none" xmlns="http://www.w3.org/2000/svg">
<path d="M0.752 6.272V4.48H20.08C24.56 4.48 28.016 5.48267 30.448 7.488C32.88 9.49333 34.096 12.1813 34.096 15.552V17.024C34.096 19.584 33.392 21.76 31.984 23.552C30.576 25.344 28.5493 26.624 25.904 27.392L33.904 42.624C34.416 43.5627 34.8 44.2453 35.056 44.672C35.312 45.0987 35.5467 45.376 35.76 45.504C36.016 45.5893 36.3573 45.6747 36.784 45.76L39.664 46.208V48H27.696L18.032 28.16H13.36V42.624C13.36 44.0747 13.424 44.9493 13.552 45.248C13.68 45.504 14.0853 45.6747 14.768 45.76L18.288 46.208V48H0.752V46.208L4.272 45.76C4.95467 45.6747 5.36 45.504 5.488 45.248C5.616 44.9493 5.68 44.0747 5.68 42.624V9.856C5.68 8.40533 5.616 7.552 5.488 7.296C5.36 6.99733 4.95467 6.80533 4.272 6.72L0.752 6.272ZM20.08 6.72H13.36V25.92H20.08C21.9573 25.92 23.3867 25.344 24.368 24.192C25.392 22.9973 25.904 20.8213 25.904 17.664V14.912C25.904 11.7547 25.392 9.6 24.368 8.448C23.3867 7.296 21.9573 6.72 20.08 6.72ZM70.0235 40.384C69.2555 43.3707 67.8262 45.504 65.7355 46.784C63.6448 48.0213 61.2128 48.64 58.4395 48.64C53.3195 48.64 49.4795 47.168 46.9195 44.224C44.3595 41.2373 43.0795 37.2907 43.0795 32.384V31.104C43.0795 26.1973 44.2742 22.272 46.6635 19.328C49.0955 16.384 52.5942 14.912 57.1595 14.912C59.7195 14.912 61.9808 15.424 63.9435 16.448C65.9488 17.4293 67.5062 18.8587 68.6155 20.736C69.7675 22.6133 70.3435 24.896 70.3435 27.584C70.3435 28.224 70.3008 28.9067 70.2155 29.632C70.1728 30.3573 70.0662 31.0827 69.8955 31.808H50.9515V33.664C50.9515 38.1867 51.5915 41.4507 52.8715 43.456C54.1515 45.4187 56.2208 46.4 59.0795 46.4C60.9142 46.4 62.4715 45.8667 63.7515 44.8C65.0315 43.6907 65.7568 41.8347 65.9275 39.232L70.0235 40.384ZM57.1595 17.152C55.0688 17.152 53.5115 18.112 52.4875 20.032C51.4635 21.952 50.9515 25.1307 50.9515 29.568H62.5355C62.7062 28.7147 62.8128 27.9253 62.8555 27.2C62.9408 26.432 62.9835 25.728 62.9835 25.088C62.9835 22.3573 62.4502 20.352 61.3835 19.072C60.3168 17.792 58.9088 17.152 57.1595 17.152ZM107.675 46.4C106.992 47.04 106.16 47.5733 105.179 48C104.24 48.4267 103.088 48.64 101.723 48.64C99.9732 48.64 98.5012 48.256 97.3065 47.488C96.1545 46.72 95.3865 45.632 95.0025 44.224C93.5945 45.76 92.0372 46.8907 90.3305 47.616C88.6665 48.2987 86.9598 48.64 85.2105 48.64C82.2665 48.64 80.0692 47.8293 78.6185 46.208C77.1678 44.544 76.4425 42.4747 76.4425 40C76.4425 37.4827 77.3598 35.456 79.1945 33.92C81.0292 32.3413 84.2718 31.552 88.9225 31.552H94.7465V26.368C94.7465 22.8267 94.2772 20.416 93.3385 19.136C92.4425 17.8133 91.1838 17.152 89.5625 17.152C88.4958 17.152 87.5145 17.4293 86.6185 17.984C85.7225 18.496 85.0825 19.4773 84.6985 20.928C84.3572 22.336 84.4212 24.384 84.8905 27.072L77.8505 26.048C77.5092 24.0853 77.7225 22.272 78.4905 20.608C79.3012 18.9013 80.6452 17.536 82.5225 16.512C84.3998 15.4453 86.7892 14.912 89.6905 14.912C92.9758 14.912 95.5145 15.4453 97.3065 16.512C99.0985 17.5787 100.336 18.9867 101.019 20.736C101.744 22.4853 102.107 24.3627 102.107 26.368V41.152C102.107 43.328 102.299 44.6933 102.683 45.248C103.067 45.8027 103.493 46.08 103.963 46.08C104.731 46.08 105.584 45.632 106.523 44.736L107.675 46.4ZM88.0265 45.248C89.1358 45.248 90.2238 44.9707 91.2905 44.416C92.3998 43.8187 93.5518 42.7307 94.7465 41.152V33.792H89.9465C87.8558 33.792 86.3412 34.2827 85.4025 35.264C84.4638 36.2453 83.9945 37.7813 83.9945 39.872C83.9945 41.5787 84.3358 42.9013 85.0185 43.84C85.7012 44.7787 86.7038 45.248 88.0265 45.248ZM109.024 2.432V0.639999H121.312V42.624C121.312 44.0747 121.376 44.9493 121.504 45.248C121.632 45.504 122.037 45.6747 122.72 45.76L126.24 46.208V48H109.024V46.208L112.544 45.76C113.227 45.6747 113.632 45.504 113.76 45.248C113.888 44.9493 113.952 44.0747 113.952 42.624V6.016C113.952 4.56533 113.888 3.712 113.76 3.456C113.632 3.15733 113.227 2.96533 112.544 2.88L109.024 2.432ZM137.298 10.048C135.975 10.048 134.909 9.64266 134.098 8.832C133.287 7.97866 132.882 6.89066 132.882 5.568C132.882 4.24533 133.287 3.17867 134.098 2.368C134.909 1.55733 135.975 1.152 137.298 1.152C138.578 1.152 139.645 1.55733 140.498 2.368C141.351 3.17867 141.778 4.24533 141.778 5.568C141.778 6.89066 141.351 7.97866 140.498 8.832C139.645 9.64266 138.578 10.048 137.298 10.048ZM128.722 17.344V15.552H141.01V42.624C141.01 44.0747 141.074 44.9493 141.202 45.248C141.33 45.504 141.735 45.6747 142.418 45.76L145.938 46.208V48H128.722V46.208L132.242 45.76C132.925 45.6747 133.33 45.504 133.458 45.248C133.586 44.9493 133.65 44.0747 133.65 42.624V20.928C133.65 19.4773 133.586 18.624 133.458 18.368C133.33 18.0693 132.925 17.8773 132.242 17.792L128.722 17.344ZM183.354 46.208V48H171.45V42.688C170.255 44.6507 168.911 46.144 167.418 47.168C165.967 48.1493 164.239 48.64 162.234 48.64C158.65 48.64 155.791 47.232 153.658 44.416C151.567 41.5573 150.522 37.568 150.522 32.448V31.168C150.522 26.2187 151.738 22.272 154.17 19.328C156.644 16.384 160.015 14.912 164.282 14.912C166.842 14.912 169.103 15.552 171.066 16.832V6.016C171.066 4.56533 171.002 3.712 170.874 3.456C170.746 3.15733 170.34 2.96533 169.658 2.88L166.138 2.432V0.639999H178.426V42.624C178.426 44.0747 178.49 44.9493 178.618 45.248C178.746 45.504 179.151 45.6747 179.833 45.76L183.354 46.208ZM158.394 34.368C158.394 38.336 158.884 41.2373 159.866 43.072C160.847 44.9067 162.191 45.824 163.898 45.824C164.964 45.824 166.074 45.3973 167.226 44.544C168.42 43.648 169.7 41.856 171.066 39.168V19.84C169.444 18.2187 167.46 17.408 165.114 17.408C162.767 17.408 161.06 18.4747 159.994 20.608C158.927 22.6987 158.394 25.5787 158.394 29.248V34.368ZM218.487 46.4C217.804 47.04 216.972 47.5733 215.991 48C215.052 48.4267 213.9 48.64 212.535 48.64C210.786 48.64 209.314 48.256 208.119 47.488C206.967 46.72 206.199 45.632 205.815 44.224C204.407 45.76 202.85 46.8907 201.143 47.616C199.479 48.2987 197.772 48.64 196.023 48.64C193.079 48.64 190.882 47.8293 189.431 46.208C187.98 44.544 187.255 42.4747 187.255 40C187.255 37.4827 188.172 35.456 190.007 33.92C191.842 32.3413 195.084 31.552 199.735 31.552H205.559V26.368C205.559 22.8267 205.09 20.416 204.151 19.136C203.255 17.8133 201.996 17.152 200.375 17.152C199.308 17.152 198.327 17.4293 197.431 17.984C196.535 18.496 195.895 19.4773 195.511 20.928C195.17 22.336 195.234 24.384 195.703 27.072L188.663 26.048C188.322 24.0853 188.535 22.272 189.303 20.608C190.114 18.9013 191.458 17.536 193.335 16.512C195.212 15.4453 197.602 14.912 200.503 14.912C203.788 14.912 206.327 15.4453 208.119 16.512C209.911 17.5787 211.148 18.9867 211.831 20.736C212.556 22.4853 212.919 24.3627 212.919 26.368V41.152C212.919 43.328 213.111 44.6933 213.495 45.248C213.879 45.8027 214.306 46.08 214.775 46.08C215.543 46.08 216.396 45.632 217.335 44.736L218.487 46.4ZM198.839 45.248C199.948 45.248 201.036 44.9707 202.103 44.416C203.212 43.8187 204.364 42.7307 205.559 41.152V33.792H200.759C198.668 33.792 197.154 34.2827 196.215 35.264C195.276 36.2453 194.807 37.7813 194.807 39.872C194.807 41.5787 195.148 42.9013 195.831 43.84C196.514 44.7787 197.516 45.248 198.839 45.248ZM255.229 46.208V48H243.325V42.688C242.13 44.6507 240.786 46.144 239.293 47.168C237.842 48.1493 236.114 48.64 234.109 48.64C230.525 48.64 227.666 47.232 225.533 44.416C223.442 41.5573 222.397 37.568 222.397 32.448V31.168C222.397 26.2187 223.613 22.272 226.045 19.328C228.519 16.384 231.89 14.912 236.157 14.912C238.717 14.912 240.978 15.552 242.941 16.832V6.016C242.941 4.56533 242.877 3.712 242.749 3.456C242.621 3.15733 242.215 2.96533 241.533 2.88L238.013 2.432V0.639999H250.301V42.624C250.301 44.0747 250.365 44.9493 250.493 45.248C250.621 45.504 251.026 45.6747 251.708 45.76L255.229 46.208ZM230.269 34.368C230.269 38.336 230.759 41.2373 231.741 43.072C232.722 44.9067 234.066 45.824 235.773 45.824C236.839 45.824 237.949 45.3973 239.101 44.544C240.295 43.648 241.575 41.856 242.941 39.168V19.84C241.319 18.2187 239.335 17.408 236.989 17.408C234.642 17.408 232.935 18.4747 231.869 20.608C230.802 22.6987 230.269 25.5787 230.269 29.248V34.368ZM286.586 40.384C285.818 43.3707 284.389 45.504 282.298 46.784C280.207 48.0213 277.775 48.64 275.002 48.64C269.882 48.64 266.042 47.168 263.482 44.224C260.922 41.2373 259.642 37.2907 259.642 32.384V31.104C259.642 26.1973 260.837 22.272 263.226 19.328C265.658 16.384 269.157 14.912 273.722 14.912C276.282 14.912 278.543 15.424 280.506 16.448C282.511 17.4293 284.069 18.8587 285.178 20.736C286.33 22.6133 286.906 24.896 286.906 27.584C286.906 28.224 286.863 28.9067 286.778 29.632C286.735 30.3573 286.629 31.0827 286.458 31.808H267.514V33.664C267.514 38.1867 268.154 41.4507 269.434 43.456C270.714 45.4187 272.783 46.4 275.642 46.4C277.477 46.4 279.034 45.8667 280.314 44.8C281.594 43.6907 282.319 41.8347 282.49 39.232L286.586 40.384ZM273.722 17.152C271.631 17.152 270.074 18.112 269.05 20.032C268.026 21.952 267.514 25.1307 267.514 29.568H279.098C279.269 28.7147 279.375 27.9253 279.418 27.2C279.503 26.432 279.546 25.728 279.546 25.088C279.546 22.3573 279.013 20.352 277.946 19.072C276.879 17.792 275.471 17.152 273.722 17.152Z" fill="white"/>
</svg>
