<svg width="348" height="49" viewBox="0 0 348 49" fill="none" xmlns="http://www.w3.org/2000/svg">
<path d="M36.136 9.856L24.04 48H18.536L6.376 9.856C6.07733 8.87467 5.84267 8.192 5.672 7.808C5.50133 7.38133 5.30933 7.104 5.096 6.976C4.88267 6.848 4.54133 6.76266 4.072 6.72L0.552 6.272V4.48H18.344V6.272L14.824 6.72C14.1413 6.80533 13.7787 6.99733 13.736 7.296C13.6933 7.552 13.8853 8.40533 14.312 9.856L24.04 40.384L33.64 9.856C34.1093 8.40533 34.3013 7.552 34.216 7.296C34.1733 6.99733 33.8107 6.80533 33.128 6.72L29.608 6.272V4.48H41.896V6.272L38.376 6.72C37.9493 6.76266 37.6293 6.848 37.416 6.976C37.2027 7.104 37.0107 7.38133 36.84 7.808C36.6693 8.192 36.4347 8.87467 36.136 9.856ZM51.4855 10.048C50.1628 10.048 49.0962 9.64266 48.2855 8.832C47.4748 7.97866 47.0695 6.89066 47.0695 5.568C47.0695 4.24533 47.4748 3.17867 48.2855 2.368C49.0962 1.55733 50.1628 1.152 51.4855 1.152C52.7655 1.152 53.8322 1.55733 54.6855 2.368C55.5388 3.17867 55.9655 4.24533 55.9655 5.568C55.9655 6.89066 55.5388 7.97866 54.6855 8.832C53.8322 9.64266 52.7655 10.048 51.4855 10.048ZM42.9095 17.344V15.552H55.1975V42.624C55.1975 44.0747 55.2615 44.9493 55.3895 45.248C55.5175 45.504 55.9228 45.6747 56.6055 45.76L60.1255 46.208V48H42.9095V46.208L46.4295 45.76C47.1122 45.6747 47.5175 45.504 47.6455 45.248C47.7735 44.9493 47.8375 44.0747 47.8375 42.624V20.928C47.8375 19.4773 47.7735 18.624 47.6455 18.368C47.5175 18.0693 47.1122 17.8773 46.4295 17.792L42.9095 17.344ZM77.189 35.904L72.773 34.88C69.9143 34.1973 67.781 32.9813 66.373 31.232C65.0077 29.44 64.325 27.328 64.325 24.896C64.325 23.104 64.709 21.4613 65.477 19.968C66.2877 18.432 67.5463 17.216 69.253 16.32C70.9597 15.3813 73.1783 14.912 75.909 14.912C78.853 14.912 81.2423 15.3813 83.077 16.32C84.9117 17.2587 86.213 18.496 86.981 20.032C87.749 21.568 87.9837 23.2107 87.685 24.96L80.645 26.24C81.2423 23.3387 81.0717 21.0987 80.133 19.52C79.237 17.9413 77.7223 17.152 75.589 17.152C74.0957 17.152 72.8583 17.6 71.877 18.496C70.8957 19.3493 70.405 20.5867 70.405 22.208C70.405 23.7013 70.8317 25.024 71.685 26.176C72.5383 27.2853 73.797 28.032 75.461 28.416L79.877 29.44C83.0343 30.1653 85.317 31.3173 86.725 32.896C88.133 34.432 88.837 36.352 88.837 38.656C88.837 41.5147 87.7703 43.904 85.637 45.824C83.5463 47.7013 80.4103 48.64 76.229 48.64C74.7783 48.64 73.1783 48.4267 71.429 48C69.7223 47.5307 68.1437 46.6987 66.693 45.504C65.285 44.3093 64.261 42.6027 63.621 40.384L67.781 38.72C68.0797 41.536 69.0397 43.52 70.661 44.672C72.325 45.824 74.181 46.4 76.229 46.4C78.149 46.4 79.7063 45.9733 80.901 45.12C82.1383 44.224 82.757 42.944 82.757 41.28C82.757 40.128 82.3517 39.0827 81.541 38.144C80.773 37.1627 79.3223 36.416 77.189 35.904ZM101.923 10.048C100.6 10.048 99.5337 9.64266 98.723 8.832C97.9123 7.97866 97.507 6.89066 97.507 5.568C97.507 4.24533 97.9123 3.17867 98.723 2.368C99.5337 1.55733 100.6 1.152 101.923 1.152C103.203 1.152 104.27 1.55733 105.123 2.368C105.976 3.17867 106.403 4.24533 106.403 5.568C106.403 6.89066 105.976 7.97866 105.123 8.832C104.27 9.64266 103.203 10.048 101.923 10.048ZM93.347 17.344V15.552H105.635V42.624C105.635 44.0747 105.699 44.9493 105.827 45.248C105.955 45.504 106.36 45.6747 107.043 45.76L110.563 46.208V48H93.347V46.208L96.867 45.76C97.5497 45.6747 97.955 45.504 98.083 45.248C98.211 44.9493 98.275 44.0747 98.275 42.624V20.928C98.275 19.4773 98.211 18.624 98.083 18.368C97.955 18.0693 97.5497 17.8773 96.867 17.792L93.347 17.344ZM112.075 2.432V0.639999H124.363V20.288C125.515 18.496 126.795 17.152 128.203 16.256C129.653 15.36 131.317 14.912 133.195 14.912C136.779 14.912 139.616 16.3413 141.707 19.2C143.84 22.016 144.907 25.984 144.907 31.104V32.384C144.907 37.3333 143.691 41.28 141.259 44.224C138.827 47.168 135.456 48.64 131.147 48.64C127.861 48.64 125.173 47.6587 123.083 45.696C122.315 45.9947 121.568 46.3787 120.843 46.848C120.16 47.2747 119.456 47.7653 118.731 48.32H117.003V6.016C117.003 4.56533 116.939 3.712 116.811 3.456C116.683 3.15733 116.277 2.96533 115.595 2.88L112.075 2.432ZM131.531 17.728C130.464 17.728 129.333 18.176 128.139 19.072C126.987 19.9253 125.728 21.696 124.363 24.384V43.712C125.984 45.3333 127.968 46.144 130.315 46.144C132.704 46.144 134.411 45.0987 135.435 43.008C136.501 40.8747 137.035 37.9733 137.035 34.304V29.184C137.035 25.216 136.544 22.3147 135.563 20.48C134.581 18.6453 133.237 17.728 131.531 17.728ZM158.548 10.048C157.225 10.048 156.159 9.64266 155.348 8.832C154.537 7.97866 154.132 6.89066 154.132 5.568C154.132 4.24533 154.537 3.17867 155.348 2.368C156.159 1.55733 157.225 1.152 158.548 1.152C159.828 1.152 160.895 1.55733 161.748 2.368C162.601 3.17867 163.028 4.24533 163.028 5.568C163.028 6.89066 162.601 7.97866 161.748 8.832C160.895 9.64266 159.828 10.048 158.548 10.048ZM149.972 17.344V15.552H162.26V42.624C162.26 44.0747 162.324 44.9493 162.452 45.248C162.58 45.504 162.985 45.6747 163.668 45.76L167.188 46.208V48H149.972V46.208L153.492 45.76C154.175 45.6747 154.58 45.504 154.708 45.248C154.836 44.9493 154.9 44.0747 154.9 42.624V20.928C154.9 19.4773 154.836 18.624 154.708 18.368C154.58 18.0693 154.175 17.8773 153.492 17.792L149.972 17.344ZM169.212 2.432V0.639999H181.5V42.624C181.5 44.0747 181.564 44.9493 181.692 45.248C181.82 45.504 182.225 45.6747 182.908 45.76L186.428 46.208V48H169.212V46.208L172.732 45.76C173.414 45.6747 173.82 45.504 173.948 45.248C174.076 44.9493 174.14 44.0747 174.14 42.624V6.016C174.14 4.56533 174.076 3.712 173.948 3.456C173.82 3.15733 173.414 2.96533 172.732 2.88L169.212 2.432ZM197.486 10.048C196.163 10.048 195.096 9.64266 194.286 8.832C193.475 7.97866 193.07 6.89066 193.07 5.568C193.07 4.24533 193.475 3.17867 194.286 2.368C195.096 1.55733 196.163 1.152 197.486 1.152C198.766 1.152 199.832 1.55733 200.686 2.368C201.539 3.17867 201.966 4.24533 201.966 5.568C201.966 6.89066 201.539 7.97866 200.686 8.832C199.832 9.64266 198.766 10.048 197.486 10.048ZM188.91 17.344V15.552H201.198V42.624C201.198 44.0747 201.262 44.9493 201.39 45.248C201.518 45.504 201.923 45.6747 202.606 45.76L206.126 46.208V48H188.91V46.208L192.43 45.76C193.112 45.6747 193.518 45.504 193.646 45.248C193.774 44.9493 193.838 44.0747 193.838 42.624V20.928C193.838 19.4773 193.774 18.624 193.646 18.368C193.518 18.0693 193.112 17.8773 192.43 17.792L188.91 17.344ZM243.541 46.208V48H231.637V42.688C230.442 44.6507 229.098 46.144 227.605 47.168C226.154 48.1493 224.426 48.64 222.421 48.64C218.837 48.64 215.978 47.232 213.845 44.416C211.754 41.5573 210.709 37.568 210.709 32.448V31.168C210.709 26.2187 211.925 22.272 214.357 19.328C216.832 16.384 220.202 14.912 224.469 14.912C227.029 14.912 229.29 15.552 231.253 16.832V6.016C231.253 4.56533 231.189 3.712 231.061 3.456C230.933 3.15733 230.528 2.96533 229.845 2.88L226.325 2.432V0.639999H238.613V42.624C238.613 44.0747 238.677 44.9493 238.805 45.248C238.933 45.504 239.338 45.6747 240.021 45.76L243.541 46.208ZM218.581 34.368C218.581 38.336 219.072 41.2373 220.053 43.072C221.034 44.9067 222.378 45.824 224.085 45.824C225.152 45.824 226.261 45.3973 227.413 44.544C228.608 43.648 229.888 41.856 231.253 39.168V19.84C229.632 18.2187 227.648 17.408 225.301 17.408C222.954 17.408 221.248 18.4747 220.181 20.608C219.114 22.6987 218.581 25.5787 218.581 29.248V34.368ZM278.675 46.4C277.992 47.04 277.16 47.5733 276.179 48C275.24 48.4267 274.088 48.64 272.723 48.64C270.973 48.64 269.501 48.256 268.307 47.488C267.155 46.72 266.387 45.632 266.003 44.224C264.595 45.76 263.037 46.8907 261.331 47.616C259.667 48.2987 257.96 48.64 256.211 48.64C253.267 48.64 251.069 47.8293 249.619 46.208C248.168 44.544 247.443 42.4747 247.443 40C247.443 37.4827 248.36 35.456 250.195 33.92C252.029 32.3413 255.272 31.552 259.923 31.552H265.747V26.368C265.747 22.8267 265.277 20.416 264.339 19.136C263.443 17.8133 262.184 17.152 260.562 17.152C259.496 17.152 258.515 17.4293 257.619 17.984C256.723 18.496 256.083 19.4773 255.699 20.928C255.357 22.336 255.421 24.384 255.891 27.072L248.851 26.048C248.509 24.0853 248.723 22.272 249.491 20.608C250.301 18.9013 251.645 17.536 253.523 16.512C255.4 15.4453 257.789 14.912 260.691 14.912C263.976 14.912 266.515 15.4453 268.307 16.512C270.099 17.5787 271.336 18.9867 272.019 20.736C272.744 22.4853 273.107 24.3627 273.107 26.368V41.152C273.107 43.328 273.299 44.6933 273.683 45.248C274.067 45.8027 274.493 46.08 274.963 46.08C275.731 46.08 276.584 45.632 277.523 44.736L278.675 46.4ZM259.027 45.248C260.136 45.248 261.224 44.9707 262.291 44.416C263.4 43.8187 264.552 42.7307 265.747 41.152V33.792H260.947C258.856 33.792 257.341 34.2827 256.403 35.264C255.464 36.2453 254.995 37.7813 254.995 39.872C254.995 41.5787 255.336 42.9013 256.019 43.84C256.701 44.7787 257.704 45.248 259.027 45.248ZM315.416 46.208V48H303.512V42.688C302.317 44.6507 300.973 46.144 299.48 47.168C298.029 48.1493 296.301 48.64 294.296 48.64C290.712 48.64 287.853 47.232 285.72 44.416C283.629 41.5573 282.584 37.568 282.584 32.448V31.168C282.584 26.2187 283.8 22.272 286.232 19.328C288.707 16.384 292.077 14.912 296.344 14.912C298.904 14.912 301.165 15.552 303.128 16.832V6.016C303.128 4.56533 303.064 3.712 302.936 3.456C302.808 3.15733 302.403 2.96533 301.72 2.88L298.2 2.432V0.639999H310.488V42.624C310.488 44.0747 310.552 44.9493 310.68 45.248C310.808 45.504 311.213 45.6747 311.896 45.76L315.416 46.208ZM290.456 34.368C290.456 38.336 290.947 41.2373 291.928 43.072C292.909 44.9067 294.253 45.824 295.96 45.824C297.027 45.824 298.136 45.3973 299.288 44.544C300.483 43.648 301.763 41.856 303.128 39.168V19.84C301.507 18.2187 299.523 17.408 297.176 17.408C294.829 17.408 293.123 18.4747 292.056 20.608C290.989 22.6987 290.456 25.5787 290.456 29.248V34.368ZM346.774 40.384C346.006 43.3707 344.576 45.504 342.486 46.784C340.395 48.0213 337.963 48.64 335.19 48.64C330.07 48.64 326.23 47.168 323.67 44.224C321.11 41.2373 319.83 37.2907 319.83 32.384V31.104C319.83 26.1973 321.024 22.272 323.414 19.328C325.846 16.384 329.344 14.912 333.91 14.912C336.47 14.912 338.731 15.424 340.694 16.448C342.699 17.4293 344.256 18.8587 345.366 20.736C346.518 22.6133 347.094 24.896 347.094 27.584C347.094 28.224 347.051 28.9067 346.966 29.632C346.923 30.3573 346.816 31.0827 346.646 31.808H327.702V33.664C327.702 38.1867 328.342 41.4507 329.622 43.456C330.902 45.4187 332.971 46.4 335.83 46.4C337.664 46.4 339.222 45.8667 340.502 44.8C341.782 43.6907 342.507 41.8347 342.678 39.232L346.774 40.384ZM333.91 17.152C331.819 17.152 330.262 18.112 329.238 20.032C328.214 21.952 327.702 25.1307 327.702 29.568H339.286C339.456 28.7147 339.563 27.9253 339.606 27.2C339.691 26.432 339.734 25.728 339.734 25.088C339.734 22.3573 339.2 20.352 338.134 19.072C337.067 17.792 335.659 17.152 333.91 17.152Z" fill="white"/>
</svg>
